<?xml version="1.0" standalone="no"?>
<!DOCTYPE svg PUBLIC "-//W3C//DTD SVG 20010904//EN"
 "http://www.w3.org/TR/2001/REC-SVG-20010904/DTD/svg10.dtd">
<svg version="1.0" xmlns="http://www.w3.org/2000/svg"
 width="389.000000pt" height="389.000000pt" viewBox="0 0 389.000000 389.000000"
 preserveAspectRatio="xMidYMid meet">

<g transform="translate(0.000000,389.000000) scale(0.100000,-0.100000)"
fill="#ffffffff" stroke="none">
<path d="M0 1945 l0 -1945 30 0 c18 0 30 5 30 13 0 25 65 99 104 119 22 11 98
42 170 69 155 58 120 43 380 168 114 56 210 101 213 101 24 0 179 90 219 128
51 47 129 153 152 205 15 34 16 82 2 108 -11 19 -25 78 -40 164 -22 123 -28
145 -60 201 -25 44 -35 77 -41 129 -4 39 -12 90 -18 114 -12 44 -63 179 -82
213 -13 24 -11 132 2 145 18 18 -6 217 -37 308 -9 28 -20 73 -25 100 -4 28
-15 83 -23 124 -9 50 -12 106 -9 166 4 64 2 94 -6 99 -19 12 -13 125 10 186
11 30 48 100 82 154 86 139 166 215 260 248 42 15 74 34 132 80 6 5 42 29 80
54 39 25 77 52 85 59 9 8 38 19 65 25 27 6 54 15 60 19 38 29 108 43 235 48
74 2 162 7 196 10 67 5 56 12 131 -85 14 -18 76 -56 168 -103 145 -73 147 -74
281 -207 74 -74 134 -140 134 -147 0 -7 6 -18 14 -25 8 -6 27 -42 42 -80 14
-37 41 -85 60 -106 31 -37 74 -146 74 -191 0 -20 -32 -108 -43 -119 -4 -4 -7
-39 -7 -78 0 -45 -8 -93 -21 -131 -19 -55 -32 -110 -46 -193 -3 -18 -9 -35
-14 -38 -5 -3 -9 -36 -9 -75 0 -65 2 -71 35 -108 30 -33 35 -45 35 -88 0 -59
-11 -93 -73 -223 -24 -52 -59 -129 -77 -170 -18 -41 -49 -97 -68 -125 -35 -49
-72 -149 -72 -194 0 -26 -7 -52 -41 -146 -39 -109 -37 -126 28 -250 l59 -110
92 -55 c51 -30 129 -75 174 -100 45 -25 87 -49 93 -55 15 -14 113 -68 210
-116 44 -22 87 -44 95 -48 8 -5 50 -24 92 -41 59 -25 86 -43 113 -75 19 -24
35 -50 35 -59 0 -14 17 -16 115 -16 l115 0 0 1945 0 1945 -1945 0 -1945 0 0
-1945z"/>
<path d="M1540 2467 c-100 -46 -169 -80 -195 -95 -37 -23 -115 -170 -115 -217
0 -18 -13 -68 -28 -111 -22 -61 -26 -86 -19 -109 5 -16 13 -46 19 -65 13 -44
45 -80 72 -80 12 0 46 9 76 21 92 35 188 36 316 4 105 -27 134 -38 219 -90 43
-27 102 -32 138 -14 12 6 36 25 52 41 42 42 118 63 282 78 l140 13 86 -26
c116 -37 145 -35 186 7 41 43 50 98 27 176 -9 29 -16 69 -16 87 0 29 -13 66
-53 152 -22 45 -91 108 -156 140 -61 29 -71 31 -178 31 -97 0 -126 -4 -191
-26 -69 -23 -88 -26 -183 -21 -59 2 -113 8 -120 13 -27 17 -85 34 -119 34 -19
0 -51 10 -70 22 -72 45 -124 56 -170 35z"/>
<path d="M1924 1543 c-64 -156 -95 -196 -187 -241 -55 -27 -76 -32 -138 -32
-62 0 -87 6 -153 35 -62 27 -83 32 -98 24 -21 -11 -21 -20 2 -109 7 -25 16
-53 21 -62 5 -10 9 -26 9 -35 0 -10 10 -45 22 -78 12 -35 23 -101 27 -158 7
-93 9 -100 35 -120 16 -12 59 -49 96 -82 127 -113 163 -139 241 -177 74 -36
85 -38 172 -38 72 0 106 5 158 24 87 32 105 41 163 90 154 130 196 179 209
246 11 56 55 197 70 227 10 18 17 39 17 48 0 9 16 59 36 112 38 102 38 125 -3
131 -11 2 -37 -8 -58 -22 -20 -14 -62 -37 -93 -52 -50 -24 -64 -26 -146 -22
-77 3 -99 8 -146 33 -87 48 -116 83 -146 181 -15 47 -33 92 -41 100 -26 26
-53 17 -69 -23z"/>
<path d="M1436 634 c-3 -9 -6 -120 -6 -248 0 -225 -1 -234 -23 -267 -33 -50
-47 -87 -41 -104 5 -13 80 -15 605 -15 l599 0 0 58 c0 49 -5 66 -35 112 -19
30 -35 66 -35 80 0 14 -5 31 -10 36 -12 12 -32 286 -24 309 7 18 -9 46 -21 37
-6 -4 -24 -25 -40 -47 -56 -75 -159 -176 -229 -226 l-70 -49 -110 0 c-208 0
-204 -1 -312 109 -52 53 -111 117 -132 142 -33 42 -89 89 -104 89 -3 0 -9 -7
-12 -16z m924 -420 c0 -24 -50 -104 -76 -121 -30 -19 -54 -11 -54 19 0 25 49
103 77 123 21 16 53 3 53 -21z m-765 18 c23 -17 66 -83 71 -111 7 -36 -12 -49
-45 -32 -44 24 -96 123 -74 144 8 9 35 9 48 -1z"/>
</g>
</svg>
