<?xml version="1.0" standalone="no"?>
<!DOCTYPE svg PUBLIC "-//W3C//DTD SVG 20010904//EN"
 "http://www.w3.org/TR/2001/REC-SVG-20010904/DTD/svg10.dtd">
<svg version="1.0" xmlns="http://www.w3.org/2000/svg"
 width="200.000000pt" height="200.000000pt" viewBox="0 0 1080.000000 1080.000000"
 preserveAspectRatio="xMidYMid meet">

<g transform="translate(-1080.000000,2000.000000) scale(0.300000,-0.300000)"
fill="#ffffffff" stroke="none">
<path d="M5017 6133 c-20 -24 -99 -182 -138 -280 -126 -316 -238 -722 -275
-993 -20 -153 -23 -143 47 -180 33 -17 62 -30 65 -28 2 3 13 58 24 124 92 526
253 996 417 1215 53 70 52 72 -42 124 -71 40 -76 41 -98 18z"/>
<path d="M8613 6128 c-110 -120 -335 -644 -424 -986 -30 -117 -39 -245 -20
-295 12 -32 86 -107 105 -107 13 0 16 13 16 66 0 174 123 579 258 849 59 119
138 246 210 338 43 54 44 58 28 76 -18 19 -126 81 -143 81 -5 0 -19 -10 -30
-22z"/>
<path d="M3551 6023 c-172 -415 -675 -1155 -904 -1332 -31 -24 -57 -48 -57
-53 0 -12 46 -58 58 -58 5 0 47 33 93 73 140 123 340 348 514 582 197 265 513
760 502 788 -7 19 -120 77 -150 77 -21 0 -29 -10 -56 -77z"/>
<path d="M6090 6000 c-285 -45 -540 -327 -606 -668 -18 -93 -18 -261 0 -327
40 -152 131 -236 283 -265 31 -5 67 -10 79 -10 34 0 125 67 220 160 112 112
171 187 156 202 -8 8 -23 1 -57 -28 -104 -87 -203 -157 -273 -192 l-74 -36
-36 19 c-136 74 -129 430 15 718 119 238 265 377 398 377 62 0 85 -20 85 -71
0 -38 -39 -108 -84 -148 -34 -32 -33 -54 7 -95 49 -53 69 -54 106 -7 80 100
104 223 58 292 -43 66 -156 98 -277 79z"/>
<path d="M7442 6000 c-155 -22 -277 -90 -345 -193 -50 -76 -59 -115 -36 -166
10 -23 32 -49 51 -61 l33 -20 8 23 c50 133 126 232 217 281 27 15 50 26 50 24
0 -25 -256 -717 -324 -875 l-35 -82 32 -47 c42 -63 90 -100 160 -124 313 -110
697 119 821 490 82 245 47 452 -100 597 -124 122 -329 181 -532 153z m339 -99
c152 -58 221 -195 198 -398 -40 -357 -307 -633 -613 -633 -96 0 -126 7 -126
27 0 27 66 213 121 343 29 69 104 226 165 350 127 255 126 228 11 285 l-67 33
37 11 c60 16 209 7 274 -18z"/>
<path d="M2417 5713 c-96 -143 -163 -220 -274 -315 -100 -87 -163 -151 -163
-168 0 -22 64 -79 112 -101 49 -22 65 -24 203 -23 118 0 170 5 245 23 95 22
110 31 110 65 0 14 -5 17 -23 13 -12 -4 -76 -11 -141 -18 -130 -12 -244 -8
-291 11 l-30 12 180 177 c184 180 258 241 294 241 18 0 21 6 21 48 0 41 -5 53
-32 79 -37 35 -76 53 -117 53 -23 0 -37 -14 -94 -97z"/>
<path d="M3925 5696 c-24 -17 -27 -14 54 -51 36 -17 92 -47 125 -69 97 -62
246 -214 246 -251 0 -3 -64 -5 -142 -6 -79 0 -215 -4 -303 -8 -176 -7 -221
-21 -239 -72 -10 -29 6 -94 32 -126 17 -22 18 -22 72 -8 195 53 231 58 468 64
263 7 256 5 248 84 -8 71 -51 140 -140 224 -93 88 -171 142 -269 189 -91 43
-126 50 -152 30z"/>
<path d="M6642 5564 c-67 -33 -142 -101 -197 -179 -154 -216 -158 -474 -9
-561 58 -34 115 -29 211 20 159 80 262 222 294 400 23 137 -3 228 -69 234 -25
3 -39 13 -62 47 -50 73 -84 81 -168 39z m185 -141 c11 -38 6 -156 -8 -218 -35
-155 -145 -291 -269 -334 -31 -11 -37 -10 -52 9 -67 82 12 321 152 461 54 54
132 106 162 109 4 0 11 -12 15 -27z"/>
<path d="M8894 5581 c-129 -31 -278 -186 -348 -360 -26 -66 -30 -89 -30 -178
-1 -97 0 -103 29 -144 71 -101 172 -128 280 -74 81 40 233 189 215 210 -10 12
-23 5 -82 -49 -111 -101 -220 -143 -262 -101 -17 18 -36 77 -36 116 0 24 12
32 114 82 144 71 212 131 261 230 23 47 37 93 41 133 6 59 6 61 -27 89 -36 29
-89 56 -111 54 -7 -1 -27 -4 -44 -8z m73 -176 c-10 -61 -49 -125 -117 -189
-63 -59 -156 -123 -166 -113 -7 7 39 116 69 164 57 90 153 173 200 173 17 0
19 -5 14 -35z"/>
</g>
</svg>
